<region> lovel=1 hivel=2 amp_velcurve_2=1 sample=../samples/toms/tm12bop/mlt/snare_on/ord/tm12wbop_mltr_ord_001.wav
<region> lovel=3 hivel=4 amp_velcurve_4=1 sample=../samples/toms/tm12bop/mlt/snare_on/ord/tm12wbop_mltr_ord_002.wav
<region> lovel=5 hivel=7 amp_velcurve_7=1 sample=../samples/toms/tm12bop/mlt/snare_on/ord/tm12wbop_mltr_ord_003.wav
<region> lovel=8 hivel=10 amp_velcurve_10=1 sample=../samples/toms/tm12bop/mlt/snare_on/ord/tm12wbop_mltr_ord_004.wav
<region> lovel=11 hivel=13 amp_velcurve_13=1 sample=../samples/toms/tm12bop/mlt/snare_on/ord/tm12wbop_mltr_ord_005.wav
<region> lovel=14 hivel=16 amp_velcurve_16=1 sample=../samples/toms/tm12bop/mlt/snare_on/ord/tm12wbop_mltr_ord_006.wav
<region> lovel=17 hivel=19 amp_velcurve_19=1 sample=../samples/toms/tm12bop/mlt/snare_on/ord/tm12wbop_mltr_ord_007.wav
<region> lovel=20 hivel=22 amp_velcurve_22=1 sample=../samples/toms/tm12bop/mlt/snare_on/ord/tm12wbop_mltr_ord_008.wav
<region> lovel=23 hivel=25 amp_velcurve_25=1 sample=../samples/toms/tm12bop/mlt/snare_on/ord/tm12wbop_mltr_ord_009.wav
<region> lovel=26 hivel=28 amp_velcurve_28=1 sample=../samples/toms/tm12bop/mlt/snare_on/ord/tm12wbop_mltr_ord_010.wav
<region> lovel=29 hivel=31 amp_velcurve_31=1 sample=../samples/toms/tm12bop/mlt/snare_on/ord/tm12wbop_mltr_ord_011.wav
<region> lovel=32 hivel=34 amp_velcurve_34=1 sample=../samples/toms/tm12bop/mlt/snare_on/ord/tm12wbop_mltr_ord_012.wav
<region> lovel=35 hivel=37 amp_velcurve_37=1 sample=../samples/toms/tm12bop/mlt/snare_on/ord/tm12wbop_mltr_ord_013.wav
<region> lovel=38 hivel=40 amp_velcurve_40=1 sample=../samples/toms/tm12bop/mlt/snare_on/ord/tm12wbop_mltr_ord_014.wav
<region> lovel=41 hivel=43 amp_velcurve_43=1 sample=../samples/toms/tm12bop/mlt/snare_on/ord/tm12wbop_mltr_ord_015.wav
<region> lovel=44 hivel=46 amp_velcurve_46=1 sample=../samples/toms/tm12bop/mlt/snare_on/ord/tm12wbop_mltr_ord_016.wav
<region> lovel=47 hivel=49 amp_velcurve_49=1 sample=../samples/toms/tm12bop/mlt/snare_on/ord/tm12wbop_mltr_ord_017.wav
<region> lovel=50 hivel=52 amp_velcurve_52=1 sample=../samples/toms/tm12bop/mlt/snare_on/ord/tm12wbop_mltr_ord_018.wav
<region> lovel=53 hivel=55 amp_velcurve_55=1 sample=../samples/toms/tm12bop/mlt/snare_on/ord/tm12wbop_mltr_ord_019.wav
<region> lovel=56 hivel=58 amp_velcurve_58=1 sample=../samples/toms/tm12bop/mlt/snare_on/ord/tm12wbop_mltr_ord_020.wav
<region> lovel=59 hivel=61 amp_velcurve_61=1 sample=../samples/toms/tm12bop/mlt/snare_on/ord/tm12wbop_mltr_ord_021.wav
<region> lovel=62 hivel=64 amp_velcurve_64=1 sample=../samples/toms/tm12bop/mlt/snare_on/ord/tm12wbop_mltr_ord_022.wav
<region> lovel=65 hivel=67 amp_velcurve_67=1 sample=../samples/toms/tm12bop/mlt/snare_on/ord/tm12wbop_mltr_ord_023.wav
<region> lovel=68 hivel=70 amp_velcurve_70=1 sample=../samples/toms/tm12bop/mlt/snare_on/ord/tm12wbop_mltr_ord_024.wav
<region> lovel=71 hivel=73 amp_velcurve_73=1 sample=../samples/toms/tm12bop/mlt/snare_on/ord/tm12wbop_mltr_ord_025.wav
<region> lovel=74 hivel=76 amp_velcurve_76=1 sample=../samples/toms/tm12bop/mlt/snare_on/ord/tm12wbop_mltr_ord_026.wav
<region> lovel=77 hivel=79 amp_velcurve_79=1 sample=../samples/toms/tm12bop/mlt/snare_on/ord/tm12wbop_mltr_ord_027.wav
<region> lovel=80 hivel=82 amp_velcurve_82=1 sample=../samples/toms/tm12bop/mlt/snare_on/ord/tm12wbop_mltr_ord_028.wav
<region> lovel=83 hivel=85 amp_velcurve_85=1 sample=../samples/toms/tm12bop/mlt/snare_on/ord/tm12wbop_mltr_ord_029.wav
<region> lovel=86 hivel=88 amp_velcurve_88=1 sample=../samples/toms/tm12bop/mlt/snare_on/ord/tm12wbop_mltr_ord_030.wav
<region> lovel=89 hivel=91 amp_velcurve_91=1 sample=../samples/toms/tm12bop/mlt/snare_on/ord/tm12wbop_mltr_ord_031.wav
<region> lovel=92 hivel=94 amp_velcurve_94=1 sample=../samples/toms/tm12bop/mlt/snare_on/ord/tm12wbop_mltr_ord_032.wav
<region> lovel=95 hivel=97 amp_velcurve_97=1 sample=../samples/toms/tm12bop/mlt/snare_on/ord/tm12wbop_mltr_ord_033.wav
<region> lovel=98 hivel=100 amp_velcurve_100=1 sample=../samples/toms/tm12bop/mlt/snare_on/ord/tm12wbop_mltr_ord_034.wav
<region> lovel=101 hivel=103 amp_velcurve_103=1 sample=../samples/toms/tm12bop/mlt/snare_on/ord/tm12wbop_mltr_ord_035.wav
<region> lovel=104 hivel=106 amp_velcurve_106=1 sample=../samples/toms/tm12bop/mlt/snare_on/ord/tm12wbop_mltr_ord_036.wav
<region> lovel=107 hivel=109 amp_velcurve_109=1 sample=../samples/toms/tm12bop/mlt/snare_on/ord/tm12wbop_mltr_ord_037.wav
<region> lovel=110 hivel=112 amp_velcurve_112=1 sample=../samples/toms/tm12bop/mlt/snare_on/ord/tm12wbop_mltr_ord_038.wav
<region> lovel=113 hivel=115 amp_velcurve_115=1 sample=../samples/toms/tm12bop/mlt/snare_on/ord/tm12wbop_mltr_ord_039.wav
<region> lovel=116 hivel=118 amp_velcurve_118=1 sample=../samples/toms/tm12bop/mlt/snare_on/ord/tm12wbop_mltr_ord_040.wav
<region> lovel=119 hivel=121 amp_velcurve_121=1 sample=../samples/toms/tm12bop/mlt/snare_on/ord/tm12wbop_mltr_ord_041.wav
<region> lovel=122 hivel=124 amp_velcurve_124=1 sample=../samples/toms/tm12bop/mlt/snare_on/ord/tm12wbop_mltr_ord_042.wav
<region> lovel=125 hivel=127 amp_velcurve_127=1 sample=../samples/toms/tm12bop/mlt/snare_on/ord/tm12wbop_mltr_ord_043.wav
